<?xml version="1.0" standalone="no"?>
<!DOCTYPE svg PUBLIC "-//W3C//DTD SVG 20010904//EN"
 "http://www.w3.org/TR/2001/REC-SVG-20010904/DTD/svg10.dtd">
<svg version="1.0" xmlns="http://www.w3.org/2000/svg"
 width="1280.000000pt" height="1043.000000pt" viewBox="0 0 1280.000000 1043.000000"
 preserveAspectRatio="xMidYMid meet">
<metadata>
Created by potrace 1.16, written by Peter Selinger 2001-2019
</metadata>
<g transform="translate(0.000000,1043.000000) scale(0.100000,-0.100000)"
fill="#000000" stroke="none">
<path d="M2030 10059 c-258 -39 -479 -252 -535 -514 -22 -105 -22 -8364 0
-8469 48 -225 232 -416 466 -483 61 -17 237 -18 4429 -18 4204 0 4367 1 4430
18 214 61 381 220 452 432 l23 70 3 4203 c2 3660 0 4212 -13 4273 -44 213
-213 399 -430 471 l-70 23 -4350 1 c-2392 1 -4375 -2 -4405 -7z m888 -599
c126 -67 195 -180 195 -320 0 -140 -75 -262 -200 -325 -53 -27 -67 -30 -158
-30 -91 0 -105 3 -158 29 -71 36 -140 108 -175 184 -22 48 -27 71 -27 142 0
99 27 168 91 240 80 88 161 122 284 117 74 -3 93 -7 148 -37z m1035 6 c73 -35
138 -101 174 -174 25 -50 28 -68 28 -152 0 -84 -3 -102 -28 -152 -37 -76 -104
-143 -175 -176 -49 -23 -70 -27 -152 -27 -82 0 -103 4 -151 26 -79 37 -133 90
-171 167 -30 61 -33 74 -33 163 0 90 2 100 35 164 41 80 101 135 186 171 83
35 205 31 287 -10z m6457 -4651 l0 -3355 -4010 0 -4010 0 0 3355 0 3355 4010
0 4010 0 0 -3355z"/>
<path d="M5215 6760 l-620 -620 -173 173 -173 172 -45 -50 c-25 -27 -58 -67
-75 -87 l-31 -38 247 -255 c136 -140 250 -255 254 -255 3 0 324 318 714 708
l707 707 -83 83 c-45 45 -87 82 -92 82 -6 0 -289 -279 -630 -620z"/>
<path d="M3340 6315 l0 -985 1000 0 1000 0 0 447 0 448 -120 -120 -120 -120 0
-212 0 -213 -760 0 -760 0 0 755 0 755 760 0 760 0 0 -75 c0 -41 3 -75 8 -75
4 0 58 51 120 113 l112 112 0 78 0 77 -1000 0 -1000 0 0 -985z"/>
<path d="M6460 6670 l0 -120 1500 0 1500 0 0 120 0 120 -1500 0 -1500 0 0
-120z"/>
<path d="M6460 5955 l0 -115 1180 0 1180 0 0 115 0 115 -1180 0 -1180 0 0
-115z"/>
<path d="M5215 3790 l-620 -620 -173 173 -173 172 -55 -60 c-30 -33 -64 -72
-75 -87 l-20 -28 246 -255 c136 -140 250 -255 254 -255 3 0 324 318 714 708
l707 707 -83 83 c-45 45 -87 82 -92 82 -6 0 -289 -279 -630 -620z"/>
<path d="M3340 3345 l0 -985 1000 0 1000 0 0 447 0 448 -120 -120 -120 -120 0
-212 0 -213 -760 0 -760 0 0 765 0 765 760 0 760 0 0 -85 c0 -47 3 -85 8 -85
4 0 58 51 120 113 l112 112 0 78 0 77 -1000 0 -1000 0 0 -985z"/>
<path d="M6460 3700 l0 -120 1500 0 1500 0 0 120 0 120 -1500 0 -1500 0 0
-120z"/>
<path d="M6460 2985 l0 -115 1180 0 1180 0 0 115 0 115 -1180 0 -1180 0 0
-115z"/>
</g>
</svg>
